// Generation Options: --volume 12 --release 0.1

<group>
ampeg_attack=0.004000
ampeg_release=0.100000

<region>
lovel=0
hivel=65
sample=TX81Z/Clavisynth/Clavisynth_C0_vl1.wav
pitch_keycenter=24
lokey=24
hikey=26
tune=-4
volume=24.836250

<region>
lovel=66
hivel=99
sample=TX81Z/Clavisynth/Clavisynth_C0_vl2.wav
pitch_keycenter=24
lokey=24
hikey=26
tune=-1
volume=12.078566

<region>
lovel=100
hivel=127
sample=TX81Z/Clavisynth/Clavisynth_C0_vl3.wav
pitch_keycenter=24
lokey=24
hikey=26
offset=422
volume=5.486279

<region>
lovel=0
hivel=65
sample=TX81Z/Clavisynth/Clavisynth_E0_vl1.wav
pitch_keycenter=28
lokey=27
hikey=30
tune=-5
volume=25.504958

<region>
lovel=66
hivel=99
sample=TX81Z/Clavisynth/Clavisynth_E0_vl2.wav
pitch_keycenter=28
lokey=27
hikey=30
offset=249
tune=-1
volume=12.747460

<region>
lovel=100
hivel=127
sample=TX81Z/Clavisynth/Clavisynth_E0_vl3.wav
pitch_keycenter=28
lokey=27
hikey=30
offset=261
volume=6.063962

<region>
lovel=0
hivel=65
sample=TX81Z/Clavisynth/Clavisynth_G#0_vl1.wav
pitch_keycenter=32
lokey=31
hikey=34
tune=-4
volume=26.064213

<region>
lovel=66
hivel=99
sample=TX81Z/Clavisynth/Clavisynth_G#0_vl2.wav
pitch_keycenter=32
lokey=31
hikey=34
tune=-1
volume=13.270246

<region>
lovel=100
hivel=127
sample=TX81Z/Clavisynth/Clavisynth_G#0_vl3.wav
pitch_keycenter=32
lokey=31
hikey=34
offset=180
volume=6.503025

<region>
lovel=0
hivel=65
sample=TX81Z/Clavisynth/Clavisynth_C1_vl1.wav
pitch_keycenter=36
lokey=35
hikey=38
tune=-3
volume=25.827750

<region>
lovel=66
hivel=99
sample=TX81Z/Clavisynth/Clavisynth_C1_vl2.wav
pitch_keycenter=36
lokey=35
hikey=38
tune=-1
volume=13.091869

<region>
lovel=100
hivel=127
sample=TX81Z/Clavisynth/Clavisynth_C1_vl3.wav
pitch_keycenter=36
lokey=35
hikey=38
offset=99
volume=6.334125

<region>
lovel=0
hivel=65
sample=TX81Z/Clavisynth/Clavisynth_E1_vl1.wav
pitch_keycenter=40
lokey=39
hikey=42
tune=-4
volume=25.898792

<region>
lovel=66
hivel=99
sample=TX81Z/Clavisynth/Clavisynth_E1_vl2.wav
pitch_keycenter=40
lokey=39
hikey=42
tune=-2
volume=13.112409

<region>
lovel=100
hivel=127
sample=TX81Z/Clavisynth/Clavisynth_E1_vl3.wav
pitch_keycenter=40
lokey=39
hikey=42
offset=39
volume=6.376762

<region>
lovel=0
hivel=65
sample=TX81Z/Clavisynth/Clavisynth_G#1_vl1.wav
pitch_keycenter=44
lokey=43
hikey=46
tune=-3
volume=25.419203

<region>
lovel=66
hivel=99
sample=TX81Z/Clavisynth/Clavisynth_G#1_vl2.wav
pitch_keycenter=44
lokey=43
hikey=46
tune=-1
volume=12.650696

<region>
lovel=100
hivel=127
sample=TX81Z/Clavisynth/Clavisynth_G#1_vl3.wav
pitch_keycenter=44
lokey=43
hikey=46
offset=2
volume=5.911535

<region>
lovel=0
hivel=65
sample=TX81Z/Clavisynth/Clavisynth_C2_vl1.wav
pitch_keycenter=48
lokey=47
hikey=50
tune=-3
volume=25.377768

<region>
lovel=66
hivel=99
sample=TX81Z/Clavisynth/Clavisynth_C2_vl2.wav
pitch_keycenter=48
lokey=47
hikey=50
tune=-1
volume=13.380894

<region>
lovel=100
hivel=127
sample=TX81Z/Clavisynth/Clavisynth_C2_vl3.wav
pitch_keycenter=48
lokey=47
hikey=50
volume=6.679631

<region>
lovel=0
hivel=65
sample=TX81Z/Clavisynth/Clavisynth_E2_vl1.wav
pitch_keycenter=52
lokey=51
hikey=54
tune=-3
volume=25.886490

<region>
lovel=66
hivel=99
sample=TX81Z/Clavisynth/Clavisynth_E2_vl2.wav
pitch_keycenter=52
lokey=51
hikey=54
tune=-2
volume=13.909693

<region>
lovel=100
hivel=127
sample=TX81Z/Clavisynth/Clavisynth_E2_vl3.wav
pitch_keycenter=52
lokey=51
hikey=54
tune=-1
volume=7.109058

<region>
lovel=0
hivel=65
sample=TX81Z/Clavisynth/Clavisynth_G#2_vl1.wav
pitch_keycenter=56
lokey=55
hikey=58
tune=-2
volume=25.698061

<region>
lovel=66
hivel=99
sample=TX81Z/Clavisynth/Clavisynth_G#2_vl2.wav
pitch_keycenter=56
lokey=55
hikey=58
tune=-1
volume=13.738626

<region>
lovel=100
hivel=127
sample=TX81Z/Clavisynth/Clavisynth_G#2_vl3.wav
pitch_keycenter=56
lokey=55
hikey=58
volume=6.937858

<region>
lovel=0
hivel=65
sample=TX81Z/Clavisynth/Clavisynth_C3_vl1.wav
pitch_keycenter=60
lokey=59
hikey=62
tune=-2
volume=25.882708

<region>
lovel=66
hivel=99
sample=TX81Z/Clavisynth/Clavisynth_C3_vl2.wav
pitch_keycenter=60
lokey=59
hikey=62
tune=-1
volume=13.158758

<region>
lovel=100
hivel=127
sample=TX81Z/Clavisynth/Clavisynth_C3_vl3.wav
pitch_keycenter=60
lokey=59
hikey=62
volume=6.389145

<region>
lovel=0
hivel=65
sample=TX81Z/Clavisynth/Clavisynth_E3_vl1.wav
pitch_keycenter=64
lokey=63
hikey=66
tune=-2
volume=25.704122

<region>
lovel=66
hivel=99
sample=TX81Z/Clavisynth/Clavisynth_E3_vl2.wav
pitch_keycenter=64
lokey=63
hikey=66
tune=-1
volume=13.016908

<region>
lovel=100
hivel=127
sample=TX81Z/Clavisynth/Clavisynth_E3_vl3.wav
pitch_keycenter=64
lokey=63
hikey=66
tune=-1
volume=6.240977

<region>
lovel=0
hivel=65
sample=TX81Z/Clavisynth/Clavisynth_G#3_vl1.wav
pitch_keycenter=68
lokey=67
hikey=70
tune=-1
volume=25.079797

<region>
lovel=66
hivel=99
sample=TX81Z/Clavisynth/Clavisynth_G#3_vl2.wav
pitch_keycenter=68
lokey=67
hikey=70
tune=-1
volume=13.124716

<region>
lovel=100
hivel=127
sample=TX81Z/Clavisynth/Clavisynth_G#3_vl3.wav
pitch_keycenter=68
lokey=67
hikey=70
tune=-1
volume=6.367377

<region>
lovel=0
hivel=65
sample=TX81Z/Clavisynth/Clavisynth_C4_vl1.wav
pitch_keycenter=72
lokey=71
hikey=74
tune=-1
volume=25.546145

<region>
lovel=66
hivel=99
sample=TX81Z/Clavisynth/Clavisynth_C4_vl2.wav
pitch_keycenter=72
lokey=71
hikey=74
tune=-1
volume=12.832382

<region>
lovel=100
hivel=127
sample=TX81Z/Clavisynth/Clavisynth_C4_vl3.wav
pitch_keycenter=72
lokey=71
hikey=74
tune=-1
volume=6.076694

<region>
lovel=0
hivel=65
sample=TX81Z/Clavisynth/Clavisynth_E4_vl1.wav
pitch_keycenter=76
lokey=75
hikey=78
tune=-1
volume=25.374249

<region>
lovel=66
hivel=99
sample=TX81Z/Clavisynth/Clavisynth_E4_vl2.wav
pitch_keycenter=76
lokey=75
hikey=78
tune=-1
volume=13.644972

<region>
lovel=100
hivel=127
sample=TX81Z/Clavisynth/Clavisynth_E4_vl3.wav
pitch_keycenter=76
lokey=75
hikey=78
tune=-1
volume=6.910574

<region>
lovel=0
hivel=65
sample=TX81Z/Clavisynth/Clavisynth_G#4_vl1.wav
pitch_keycenter=80
lokey=79
hikey=82
tune=-1
volume=24.993729

<region>
lovel=66
hivel=99
sample=TX81Z/Clavisynth/Clavisynth_G#4_vl2.wav
pitch_keycenter=80
lokey=79
hikey=82
tune=-1
volume=13.143784

<region>
lovel=100
hivel=127
sample=TX81Z/Clavisynth/Clavisynth_G#4_vl3.wav
pitch_keycenter=80
lokey=79
hikey=82
tune=-1
volume=6.378813

<region>
lovel=0
hivel=65
sample=TX81Z/Clavisynth/Clavisynth_C5_vl1.wav
pitch_keycenter=84
lokey=83
hikey=86
tune=-1
volume=24.197309

<region>
lovel=66
hivel=99
sample=TX81Z/Clavisynth/Clavisynth_C5_vl2.wav
pitch_keycenter=84
lokey=83
hikey=86
tune=-1
volume=13.376761

<region>
lovel=100
hivel=127
sample=TX81Z/Clavisynth/Clavisynth_C5_vl3.wav
pitch_keycenter=84
lokey=83
hikey=86
tune=-1
volume=7.884477

<region>
lovel=0
hivel=65
sample=TX81Z/Clavisynth/Clavisynth_E5_vl1.wav
pitch_keycenter=88
lokey=87
hikey=90
volume=23.561087

<region>
lovel=66
hivel=99
sample=TX81Z/Clavisynth/Clavisynth_E5_vl2.wav
pitch_keycenter=88
lokey=87
hikey=90
volume=13.407473

<region>
lovel=100
hivel=127
sample=TX81Z/Clavisynth/Clavisynth_E5_vl3.wav
pitch_keycenter=88
lokey=87
hikey=90
volume=6.471975

<region>
lovel=0
hivel=65
sample=TX81Z/Clavisynth/Clavisynth_G#5_vl1.wav
pitch_keycenter=92
lokey=91
hikey=94
volume=24.074597

<region>
lovel=66
hivel=99
sample=TX81Z/Clavisynth/Clavisynth_G#5_vl2.wav
pitch_keycenter=92
lokey=91
hikey=94
volume=12.985388

<region>
lovel=100
hivel=127
sample=TX81Z/Clavisynth/Clavisynth_G#5_vl3.wav
pitch_keycenter=92
lokey=91
hikey=94
volume=6.860392

<region>
lovel=0
hivel=65
sample=TX81Z/Clavisynth/Clavisynth_C6_vl1.wav
pitch_keycenter=96
lokey=95
hikey=97
tune=-1
volume=25.635835

<region>
lovel=66
hivel=99
sample=TX81Z/Clavisynth/Clavisynth_C6_vl2.wav
pitch_keycenter=96
lokey=95
hikey=97
tune=-1
volume=14.224993

<region>
lovel=100
hivel=127
sample=TX81Z/Clavisynth/Clavisynth_C6_vl3.wav
pitch_keycenter=96
lokey=95
hikey=97
tune=-1
volume=7.866762

